<?xml version="1.0" encoding="UTF-8"?>
<svg id="Layer_1" xmlns="http://www.w3.org/2000/svg" version="1.1" viewBox="0 0 250 250">
  <!-- Generator: Adobe Illustrator 29.8.2, SVG Export Plug-In . SVG Version: 2.1.1 Build 3)  -->
  <defs>
    <style>
      .st0 {
        fill: #cf3;
      }
    </style>
  </defs>
  <g id="_21_-_30">
    <g id="Political_Science">
      <path class="st0" d="M22.727,122.358h34.091v73.864H22.727v-73.864Z"/>
      <path class="st0" d="M79.545,122.358h34.091v73.864h-34.091v-73.864Z"/>
      <path class="st0" d="M136.364,122.358h34.091v73.864h-34.091v-73.864Z"/>
      <path class="st0" d="M193.182,122.358h34.091v73.864h-34.091v-73.864Z"/>
      <path class="st0" d="M17.045,93.949v11.364c0,3.138,2.544,5.682,5.682,5.682h34.091c3.138,0,5.682-2.544,5.682-5.682v-11.364H17.045Z"/>
      <path class="st0" d="M73.864,93.949v11.364c0,3.138,2.544,5.682,5.682,5.682h34.091c3.138,0,5.682-2.544,5.682-5.682v-11.364h-45.455Z"/>
      <path class="st0" d="M130.682,93.949v11.364c0,3.138,2.544,5.682,5.682,5.682h34.091c3.138,0,5.682-2.544,5.682-5.682v-11.364h-45.455Z"/>
      <path class="st0" d="M187.5,93.949v11.364c0,3.138,2.544,5.682,5.682,5.682h34.091c3.138,0,5.682-2.544,5.682-5.682v-11.364h-45.455Z"/>
      <rect class="st0" x="5.682" y="207.199" width="238.636" height="34.091" rx="17.045" ry="17.045"/>
      <path class="st0" d="M242.21,47.188L127.875,9.29c-2.334-.773-4.854-.773-7.187,0L7.744,47.188C3.119,48.742.002,53.075,0,57.955v13.267c0,6.276,5.088,11.364,11.364,11.364h227.273c6.276,0,11.364-5.088,11.364-11.364v-13.25c-.001-4.898-3.14-9.244-7.79-10.784h0Z"/>
    </g>
  </g>
</svg>