<?xml version="1.0" encoding="UTF-8"?>
<svg id="Layer_1" xmlns="http://www.w3.org/2000/svg" version="1.1" viewBox="0 0 250 250">
  <!-- Generator: Adobe Illustrator 29.8.2, SVG Export Plug-In . SVG Version: 2.1.1 Build 3)  -->
  <defs>
    <style>
      .st0 {
        fill: #cf3;
      }
    </style>
  </defs>
  <path class="st0" d="M125,0C56.078,0,0,56.078,0,125s56.078,125,125,125,125-56.078,125-125S193.922,0,125,0ZM132.938,40.609l32.141-17.281c17.797,7.047,33.328,18.594,45.141,33.281l-7.656,35.344-24.516,12.016-45.109-32.859v-30.5ZM85.188,23.234l32.141,17.344v30.531l-45.078,32.859-24.641-12.031-7.656-35.562c11.844-14.656,27.406-26.141,45.234-33.141ZM34.844,186.781c-10.203-14.844-16.844-32.297-18.672-51.156l26.453-28.734,24.125,11.797,18.172,51.609-15.359,18.406-34.719-1.922ZM152.859,230.641c-8.922,2.359-18.219,3.734-27.859,3.734-11.656,0-22.875-1.875-33.422-5.266l-9.828-30.594,15.672-18.828h55.219l15.391,18.219-15.172,32.734ZM180.219,188.172l-15.109-17.891,18.422-51.594,24.016-11.766,26.297,28.719c-1.578,16.266-6.812,31.437-14.766,44.859l-38.859,7.672Z"/>
</svg>