<?xml version="1.0" encoding="UTF-8"?>
<svg id="Layer_1" xmlns="http://www.w3.org/2000/svg" version="1.1" viewBox="0 0 250 250">
  <!-- Generator: Adobe Illustrator 29.8.2, SVG Export Plug-In . SVG Version: 2.1.1 Build 3)  -->
  <defs>
    <style>
      .st0 {
        fill: #cf3;
      }
    </style>
  </defs>
  <path class="st0" d="M114.091,126.477l-7.5,30.227c9.318,2.273,37.955,11.477,42.159-5.568,4.432-17.727-25.341-22.386-34.659-24.659Z"/>
  <path class="st0" d="M125,0C55.909,0,0,55.909,0,125s55.909,125,125,125,125-55.909,125-125S194.091,0,125,0ZM180.114,107.159c-1.818,12.159-8.523,18.068-17.5,20.227,12.273,6.364,18.523,16.136,12.614,33.182-7.386,21.136-25,22.955-48.409,18.523l-5.682,22.727-13.75-3.409,5.682-22.386c-3.636-.909-7.273-1.818-10.909-2.841l-5.682,22.5-13.75-3.409,5.682-22.727c-3.182-.909-6.364-1.705-9.773-2.614l-17.841-4.432,6.818-15.682s9.318,2.5,10,2.5c3.864.909,5.568-1.591,6.25-3.295l8.977-35.909,1.477.341s-1.023-.341-1.477-.455l6.477-25.682c.114-2.955-.909-6.591-6.477-7.955l-9.886-2.5,3.636-14.659,18.864,4.773c2.841.795,5.795,1.477,8.75,2.159l5.682-22.614,13.636,3.409-5.455,22.159c3.636.795,7.386,1.705,11.023,2.5l5.455-21.932,13.75,3.409-5.682,22.614c17.273,5.909,30,14.886,27.5,31.477Z"/>
  <path class="st0" d="M124.318,85.227l-6.818,27.386c7.727,1.932,31.705,9.773,35.568-5.682,3.977-16.136-20.909-19.773-28.75-21.705Z"/>
</svg>