<?xml version="1.0" encoding="UTF-8"?>
<svg id="Layer_1" xmlns="http://www.w3.org/2000/svg" version="1.1" viewBox="0 0 250 250">
  <!-- Generator: Adobe Illustrator 29.8.2, SVG Export Plug-In . SVG Version: 2.1.1 Build 3)  -->
  <defs>
    <style>
      .st0 {
        fill: #cf3;
      }
    </style>
  </defs>
  <g id="Layer_2">
    <path class="st0" d="M241.279,69.77H8.721c-4.816.001-8.72,3.905-8.721,8.721v127.907c.014,11.233,9.116,20.335,20.349,20.349h209.302c11.233-.014,20.335-9.116,20.349-20.349v-127.907c-.001-4.816-3.905-8.72-8.721-8.721ZM159.492,167.273l-47.017,28.206c-7.291,4.367-16.741,1.997-21.109-5.294-1.43-2.387-2.186-5.118-2.187-7.901v-56.413c.001-8.495,6.889-15.38,15.384-15.379,2.789,0,5.526.759,7.917,2.196l47.012,28.195c7.287,4.371,9.651,13.822,5.28,21.11-1.3,2.167-3.113,3.98-5.28,5.28h0Z"/>
    <path class="st0" d="M106.616,178.654l40.953-24.581-40.953-24.57v49.151Z"/>
    <path class="st0" d="M241.279,87.212H8.721c-4.816-.001-8.72-3.905-8.721-8.721v-34.884c.014-11.233,9.116-20.335,20.349-20.349h209.302c11.233.014,20.335,9.116,20.349,20.349v34.884c-.001,4.816-3.905,8.72-8.721,8.721ZM17.442,69.77h215.116v-26.163c-.003-1.604-1.303-2.904-2.907-2.907H20.349c-1.604.003-2.904,1.303-2.907,2.907v26.163Z"/>
    <path class="st0" d="M43.599,87.212c-4.815-.001-8.717-3.906-8.716-8.72,0-1.352.315-2.686.92-3.896l23.256-46.512c2.151-4.308,7.388-6.057,11.697-3.906s6.057,7.388,3.906,11.697l-23.256,46.512c-1.475,2.961-4.499,4.83-7.807,4.826Z"/>
    <path class="st0" d="M183.134,87.212c-4.815-.001-8.717-3.906-8.716-8.72,0-1.352.315-2.686.92-3.896l23.256-46.512c2.151-4.308,7.388-6.057,11.696-3.906,4.308,2.151,6.057,7.388,3.906,11.696h0l-23.256,46.512c-1.474,2.961-4.499,4.831-7.807,4.827Z"/>
    <path class="st0" d="M136.622,87.212c-4.815-.001-8.717-3.906-8.716-8.72,0-1.352.315-2.686.92-3.896l23.256-46.512c2.148-4.31,7.384-6.062,11.694-3.913,4.31,2.148,6.062,7.384,3.913,11.694-.002.003-.003.006-.005.01l-23.256,46.512c-1.474,2.961-4.499,4.831-7.807,4.827Z"/>
    <path class="st0" d="M90.111,87.212c-4.815-.001-8.717-3.906-8.716-8.72,0-1.352.315-2.686.92-3.896l23.256-46.512c2.148-4.31,7.384-6.062,11.694-3.913,4.31,2.148,6.062,7.384,3.913,11.694-.002.003-.003.006-.005.01l-23.256,46.512c-1.474,2.961-4.499,4.831-7.807,4.827Z"/>
  </g>
</svg>