<?xml version="1.0" encoding="UTF-8"?>
<svg id="Layer_1" xmlns="http://www.w3.org/2000/svg" version="1.1" viewBox="0 0 250 250">
  <!-- Generator: Adobe Illustrator 29.8.2, SVG Export Plug-In . SVG Version: 2.1.1 Build 3)  -->
  <defs>
    <style>
      .st0 {
        fill: #cf3;
      }
    </style>
  </defs>
  <g id="Layer_13">
    <path class="st0" d="M241.071,89.286c4.931,0,8.929-3.997,8.929-8.929v-35.714c0-4.931-3.997-8.929-8.929-8.929h-35.714c-4.931,0-8.929,3.997-8.929,8.929s3.997,8.929,8.929,8.929h14.196l-76.696,76.696-29.375-29.464c-3.472-3.501-9.126-3.524-12.627-.052-.017.017-.035.034-.052.052L17.857,183.839V44.643c0-4.931-3.997-8.929-8.929-8.929S0,39.712,0,44.643v151.786c0,9.862,7.995,17.857,17.857,17.857h223.214c4.931,0,8.929-3.997,8.929-8.929s-3.997-8.929-8.929-8.929h-17.857v-96.071l-61.429,61.429c-10.458,10.445-27.399,10.445-37.857,0l-16.786-16.786-51.429,51.429h-25.268l76.696-76.696,29.375,29.464c3.472,3.501,9.126,3.524,12.627.052.017-.017.035-.034.052-.052l82.946-83.036v14.196c0,4.931,3.997,8.929,8.929,8.929Z"/>
  </g>
</svg>