<?xml version="1.0" encoding="UTF-8"?>
<svg id="Layer_1" xmlns="http://www.w3.org/2000/svg" version="1.1" viewBox="0 0 250 250">
  <!-- Generator: Adobe Illustrator 29.8.2, SVG Export Plug-In . SVG Version: 2.1.1 Build 3)  -->
  <defs>
    <style>
      .st0 {
        fill: #cf3;
      }
    </style>
  </defs>
  <path id="rect3225" class="st0" d="M38.021,0C17.172,0,0,17.172,0,38.021v36.453C0,95.324,17.172,112.495,38.021,112.495h36.453c20.85,0,38.021-17.172,38.021-38.021v-36.453C112.495,17.172,95.324,0,74.474,0h-36.453ZM38.021,25.009h36.453c7.431,0,13.012,5.582,13.012,13.012v36.453c0,7.431-5.582,13.012-13.012,13.012h-36.453c-7.431,0-13.012-5.582-13.012-13.012v-36.453c0-7.431,5.582-13.012,13.012-13.012Z" vector-effect="none"/>
  <path id="rect3227" class="st0" d="M38.021,137.505C17.172,137.505,0,154.676,0,175.526v36.453C0,232.828,17.172,250,38.021,250h36.453c20.85,0,38.021-17.172,38.021-38.021v-36.453c0-20.85-17.172-38.021-38.021-38.021h-36.453ZM38.021,162.514h36.453c7.431,0,13.012,5.582,13.012,13.012v36.453c0,7.431-5.582,13.012-13.012,13.012h-36.453c-7.431,0-13.012-5.582-13.012-13.012v-36.453c0-7.431,5.582-13.012,13.012-13.012Z" vector-effect="none"/>
  <path id="rect3229" class="st0" d="M175.526,0C154.676,0,137.505,17.172,137.505,38.021v36.453c0,20.85,17.172,38.021,38.021,38.021h36.453c20.85,0,38.021-17.172,38.021-38.021v-36.453C250,17.172,232.828,0,211.979,0h-36.453ZM175.526,25.009h36.453c7.431,0,13.012,5.582,13.012,13.012v36.453c0,7.431-5.582,13.012-13.012,13.012h-36.453c-7.431,0-13.012-5.582-13.012-13.012v-36.453c0-7.431,5.582-13.012,13.012-13.012Z" vector-effect="none"/>
  <path id="rect3231" class="st0" d="M175.526,137.505c-20.85,0-38.021,17.172-38.021,38.021v36.453c0,20.85,17.172,38.021,38.021,38.021h36.453c20.85,0,38.021-17.172,38.021-38.021v-36.453c0-20.85-17.172-38.021-38.021-38.021h-36.453ZM175.526,162.514h36.453c7.431,0,13.012,5.582,13.012,13.012v36.453c0,7.431-5.582,13.012-13.012,13.012h-36.453c-7.431,0-13.012-5.582-13.012-13.012v-36.453c0-7.431,5.582-13.012,13.012-13.012Z" vector-effect="none"/>
</svg>