<?xml version="1.0" encoding="UTF-8"?>
<svg id="Layer_1" xmlns="http://www.w3.org/2000/svg" version="1.1" viewBox="0 0 250 250">
  <!-- Generator: Adobe Illustrator 29.8.2, SVG Export Plug-In . SVG Version: 2.1.1 Build 3)  -->
  <defs>
    <style>
      .st0 {
        fill: #cf3;
      }
    </style>
  </defs>
  <rect class="st0" x="75" y="75" width="100" height="100"/>
  <path class="st0" d="M237.5,137.5c7.5,0,12.5-5,12.5-12.5,0-6.25-5-12.5-12.5-12.5h-12.5v-25h12.5c7.5,0,12.5-5,12.5-12.5,0-6.25-5-12.5-12.5-12.5h-12.5v-12.5c0-13.75-11.25-25-25-25h-12.5v-12.5C187.5,6.25,182.5,0,175,0,168.75,0,162.5,5,162.5,12.5v12.5h-25v-12.5C137.5,6.25,132.5,0,125,0s-12.5,5-12.5,12.5v12.5h-25v-12.5C87.5,6.25,82.5,0,75,0s-12.5,5-12.5,12.5v12.5h-12.5c-13.75,0-25,11.25-25,25v12.5h-12.5c-7.5,0-12.5,5-12.5,12.5,0,6.25,5,12.5,12.5,12.5h12.5v25h-12.5c-7.5,0-12.5,5-12.5,12.5,0,6.25,5,12.5,12.5,12.5h12.5v25h-12.5c-7.5,0-12.5,5-12.5,12.5,0,6.25,5,12.5,12.5,12.5h12.5v12.5c0,13.75,11.25,25,25,25h12.5v12.5c0,6.25,5,12.5,12.5,12.5s12.5-5,12.5-12.5v-12.5h25v12.5c0,6.25,5,12.5,12.5,12.5s12.5-5,12.5-12.5v-12.5h25v12.5c0,6.25,5,12.5,12.5,12.5,6.25,0,12.5-5,12.5-12.5v-12.5h12.5c13.75,0,25-11.25,25-25v-12.5h12.5c7.5,0,12.5-5,12.5-12.5,0-6.25-5-12.5-12.5-12.5h-12.5v-25h12.5ZM200,200H50V50h150v150Z"/>
</svg>